<svg width="153" height="33" viewBox="0 0 153 33" fill="none" xmlns="http://www.w3.org/2000/svg">
<g clip-path="url(#clip0_3_2456)">
<path d="M63.2366 8.67602C63.2912 9.28315 63.3287 9.70116 63.3901 10.3824C65.0904 8.84902 66.9819 8.29884 69.0689 8.37621C72.8279 8.51483 75.8373 10.549 77.0008 13.9543C78.1825 17.4133 77.9676 20.7681 75.5404 23.7941C73.1668 26.7535 68.2796 27.6884 64.896 25.8122C64.5491 25.6198 64.2135 25.4103 63.5994 25.0471C63.5994 27.035 63.5971 28.8016 63.5994 30.5671C63.6028 32.958 63.6039 32.9806 61.1427 32.9441C59.9109 32.9258 58.2925 33.2213 57.5668 32.612C56.9481 32.0919 57.3178 30.4812 57.3155 29.3529C57.303 22.9613 57.3462 16.5698 57.278 10.1793C57.2643 8.93177 57.6874 8.57716 58.9339 8.6556C60.3124 8.74264 61.7 8.67602 63.2366 8.67602ZM63.5402 17.4595C63.489 20.0471 64.7674 21.7331 66.9546 21.9588C69.6535 22.2381 71.7781 20.0213 71.4255 17.2156C71.2162 15.5522 70.651 14.0241 68.7516 13.4192C65.9196 12.5176 63.6028 14.3304 63.5402 17.4595Z" fill="#F6B736"/>
<path d="M46.7578 10.0912C46.5918 8.85866 47.1047 8.60721 48.1044 8.66093C49.707 8.7469 51.3175 8.6835 52.9825 8.6835C52.9825 14.6678 52.9825 20.4683 52.9825 26.3709C51.0411 26.3709 49.169 26.3709 47.2253 26.3709C47.1479 25.9529 47.0717 25.537 46.9739 25.0051C46.1027 25.4801 45.343 26.0539 44.4774 26.3408C39.2251 28.0827 33.5134 24.7171 32.8548 19.4668C32.4238 16.0314 32.9561 12.827 35.8791 10.3448C38.5916 8.04091 43.5164 7.682 46.0447 9.70542C46.1778 9.81395 46.3518 9.8752 46.7578 10.0912ZM46.7885 17.5251C46.7885 17.2629 46.809 16.9996 46.7851 16.7395C46.61 14.7656 45.2815 13.4105 43.3446 13.2171C41.4089 13.0237 39.9963 13.9822 39.2763 15.867C38.719 17.3263 38.9044 18.7082 39.5936 20.0524C40.4683 21.7578 42.776 22.5186 44.5582 21.6772C46.3643 20.8261 46.8932 19.3121 46.7885 17.5251Z" fill="#F6B736"/>
<path d="M112.242 10.0966C112.146 8.63739 113.016 8.61697 114.018 8.66318C115.175 8.7169 116.336 8.69649 117.495 8.66962C118.249 8.65243 118.584 8.91462 118.581 9.6636C118.561 14.9204 118.584 20.1783 118.527 25.435C118.523 25.7778 117.985 26.3882 117.664 26.4086C116.056 26.5096 114.439 26.4548 112.81 26.4548C112.701 25.9132 112.618 25.5027 112.493 24.8806C110.042 26.8793 107.347 27.1404 104.477 26.4075C102.555 25.9164 101.105 24.7924 99.9777 23.2827C97.3595 19.7764 97.7314 14.0897 100.643 11.0347C102.923 8.64061 107.868 7.06529 112.242 10.0966ZM112.434 17.6143C112.441 15.0128 110.744 13.1302 108.419 13.1602C106.1 13.1903 104.538 14.9644 104.536 17.5703C104.534 20.0848 105.929 21.8116 108.106 21.9868C110.61 22.1877 112.427 20.3513 112.434 17.6143Z" fill="#F6B736"/>
<path d="M26.1499 20.7896C27.1895 21.8535 28.1835 22.8721 29.2322 23.9467C27.4067 25.9476 25.0956 26.5354 22.6037 26.7589C17.3457 27.2317 12.7542 24.6119 11.4235 20.3695C9.30122 13.5975 15.1222 7.36935 22.5195 8.49657C27.1042 9.19504 30.1295 12.0813 30.5856 16.1303C30.68 16.9738 30.4844 17.4058 29.5165 17.5788C26.0146 18.2021 22.5263 18.8962 19.0347 19.57C18.6059 19.6527 18.1851 19.7731 17.7392 19.8816C18.9232 22.6261 22.1465 22.9484 26.1499 20.7896ZM24.5326 15.3867C24.105 13.3321 22.5047 12.4413 20.1652 12.754C18.3545 12.9958 17.0864 14.7022 17.3537 16.7987C19.7307 16.3313 22.0907 15.867 24.5326 15.3867Z" fill="#F6B736"/>
<path d="M81.1216 21.371C83.5293 21.7782 85.6414 22.1715 87.7694 22.4713C88.3415 22.5519 89.0159 22.4692 89.538 22.2435C89.9622 22.0598 90.4934 21.5483 90.4899 21.1851C90.4865 20.824 89.9349 20.2405 89.5243 20.1481C87.8592 19.7742 86.1384 19.6248 84.4699 19.2584C80.6348 18.4148 78.9595 15.8423 80.1025 12.5531C80.7838 10.5909 82.4477 9.52708 84.4256 8.97261C88.2186 7.90771 91.9332 8.27091 95.7206 9.81829C95.111 11.1733 94.5253 12.4757 94.0464 13.5374C91.9628 13.2397 90.0714 12.9485 88.172 12.7164C87.7284 12.6627 87.1757 12.6874 86.8197 12.8969C86.3591 13.1688 85.837 13.6255 85.7483 14.0747C85.6937 14.3508 86.3409 14.9676 86.7719 15.0751C88.2914 15.4523 89.8633 15.6371 91.3987 15.967C93.347 16.3861 95.1383 17.0695 95.9947 18.9876C97.1605 21.5988 95.8514 24.5055 92.9819 25.7241C89.6904 27.1221 86.2749 27.1188 82.9072 26.2248C78.542 25.0653 79.2699 25.5639 80.8213 21.8921C80.9373 21.6171 81.1227 21.3688 81.1216 21.371Z" fill="#F6B736"/>
<path d="M9.67999 22.0952C9.76075 23.303 9.91656 24.4346 9.86538 25.5575C9.84946 25.9142 9.3331 26.4859 8.96005 26.5558C4.57328 27.3789 -0.0546028 25.8207 -9.92842e-06 20.0632C0.0534456 14.5861 0.00567683 9.10798 0.00795154 3.62983C0.00795154 3.15702 0.0568577 2.68529 0.0875662 2.12866C2.153 2.12866 4.11607 2.12866 6.1997 2.12866C6.22358 2.64983 6.26453 3.11727 6.26453 3.58578C6.26908 8.80066 6.26225 14.0155 6.26907 19.2304C6.27249 21.732 6.87301 22.2693 9.67999 22.0952Z" fill="#F6B736"/>
<path d="M143.122 22.0878C143.18 23.301 143.275 24.5142 143.269 25.7263C143.268 25.9885 142.974 26.3796 142.712 26.4914C139.113 28.0248 134.252 25.5941 133.588 21.9459C133.509 21.5172 133.498 21.0734 133.497 20.636C133.483 14.6786 133.476 8.72016 133.472 2.76275C133.472 2.59082 133.51 2.41781 133.542 2.1438C135.514 2.1438 137.474 2.1438 139.568 2.1438C139.599 2.67893 139.652 3.18935 139.653 3.69977C139.662 8.86952 139.659 14.0382 139.666 19.2079C139.669 21.7117 140.361 22.3092 143.122 22.0878Z" fill="#F6B736"/>
<path d="M128.975 26.4398C127.13 26.4398 125.338 26.487 123.555 26.386C123.304 26.3721 122.907 25.6381 122.9 25.2319C122.845 22.0405 122.869 18.849 122.869 15.6564C122.869 13.3913 122.869 11.1261 122.869 8.75879C124.946 8.75879 126.907 8.75879 128.973 8.75879C128.975 14.6345 128.975 20.4587 128.975 26.4398Z" fill="#F6B736"/>
<path d="M94.9631 31.3624C107.823 29.4132 120.836 28.2827 133.935 30.3019C133.967 30.4716 134 30.6414 134.035 30.8112C133.607 30.9477 133.187 31.1712 132.751 31.2066C130.259 31.4087 127.762 31.7235 125.268 31.7085C118.173 31.6676 111.081 31.4721 103.987 31.37C100.94 31.3259 97.8907 31.3624 94.9631 31.3624Z" fill="#F6B736"/>
<path d="M149.242 19.6185C151.54 19.6292 153.021 21.0143 153.001 23.1345C152.982 25.2213 151.407 26.7644 149.28 26.7794C147.156 26.7944 145.529 25.2288 145.532 23.1764C145.537 21.0036 146.993 19.6077 149.242 19.6185Z" fill="#F6B736"/>
<path d="M126.039 1.63474e-05C128.283 -0.0053565 129.859 1.31421 129.817 3.1657C129.774 5.06661 128.114 6.47429 125.937 6.4528C123.805 6.43131 122.185 5.03974 122.166 3.2162C122.148 1.28842 123.692 0.00646376 126.039 1.63474e-05Z" fill="#F6B736"/>
</g>
<defs>
<clipPath id="clip0_3_2456">
<rect width="153" height="33" fill="white"/>
</clipPath>
</defs>
</svg>
